<svg width="16" height="15" viewBox="0 0 16 15" fill="none" xmlns="http://www.w3.org/2000/svg">
<path d="M16 3.15789V5.52632H11.6V9.56053C10.128 9.8921 9.008 11.1237 8.832 12.6316H1.6C1.17565 12.6316 0.768687 12.4652 0.468629 12.1691C0.168571 11.873 0 11.4714 0 11.0526V1.57895C0 0.702631 0.712 0 1.6 0H6.4L8 1.57895H14.4C14.8243 1.57895 15.2313 1.7453 15.5314 2.04141C15.8314 2.33752 16 2.73913 16 3.15789ZM13.2 7.10526V11.2184C12.9275 11.1006 12.6317 11.0443 12.3344 11.0536C12.037 11.0629 11.7455 11.1376 11.481 11.2721C11.2166 11.4067 10.9859 11.5978 10.8058 11.8315C10.6257 12.0652 10.5007 12.3356 10.4399 12.623C10.3791 12.9104 10.384 13.2076 10.4543 13.4928C10.5247 13.7781 10.6586 14.0443 10.8464 14.2721C11.0342 14.4998 11.2711 14.6833 11.5399 14.8093C11.8086 14.9352 12.1025 15.0003 12.4 15C12.9304 15 13.4391 14.7921 13.8142 14.4219C14.1893 14.0518 14.4 13.5498 14.4 13.0263V8.68421H16V7.10526H13.2Z" fill="white"/>
</svg>
