<svg width="23" height="20" viewBox="0 0 23 20" fill="none" xmlns="http://www.w3.org/2000/svg">
<path d="M22.5125 1.96908C23.0111 1.64279 23.1503 0.98127 22.8224 0.485129C22.4945 -0.0110113 21.8297 -0.149573 21.3312 0.176718L16.6283 3.23849C15.0832 2.97924 13.3404 2.85856 11.4988 2.85856C5.14751 2.85856 0 4.28888 0 7.86466V15.0162C0 16.4153 1.23073 17.6444 3.23404 18.5339V13.9435C3.23404 13.349 3.71465 12.8708 4.31205 12.8708C4.90945 12.8708 5.39006 13.349 5.39006 13.9435V19.2804C6.87233 19.6782 8.58367 19.9285 10.4208 20V15.3738C10.4208 14.7793 10.9014 14.3011 11.4988 14.3011C12.0962 14.3011 12.5768 14.7793 12.5768 15.3738V20C14.4139 19.9285 16.1253 19.6782 17.6075 19.2804V13.9435C17.6075 13.349 18.0881 12.8708 18.6855 12.8708C19.2829 12.8708 19.7636 13.349 19.7636 13.9435V18.5339C21.7669 17.6444 22.9976 16.4153 22.9976 15.0162V7.86466C22.9976 6.0276 21.6411 4.7582 19.4581 3.95811L22.508 1.96908H22.5125ZM13.8075 5.07555L10.9059 6.96625C10.4073 7.29254 10.2681 7.95406 10.596 8.4502C10.9239 8.94634 11.5886 9.0849 12.0872 8.75861L17.0775 5.50464C17.7378 5.64768 18.3307 5.81753 18.8472 6.01866C20.59 6.69359 20.8416 7.39087 20.8416 7.86466C20.8416 7.90042 20.7203 8.63346 18.7754 9.4693C17.0281 10.2202 14.4633 10.7253 11.4988 10.7253C8.53426 10.7253 5.96949 10.2202 4.22221 9.4693C2.2773 8.63346 2.15602 7.90042 2.15602 7.86466C2.15602 7.39087 2.40756 6.69359 4.15035 6.01866C5.86618 5.35714 8.43544 5.00403 11.4988 5.00403C12.3073 5.00403 13.0754 5.02638 13.8075 5.07555Z" fill="white"/>
</svg>
