<svg width="24" height="24" viewBox="0 0 24 24" fill="none" xmlns="http://www.w3.org/2000/svg">
<path d="M9.6 16.8H14.4C14.74 16.8 15.0252 16.6848 15.2556 16.4544C15.4852 16.2248 15.6 15.94 15.6 15.6V14.37C15.6 14.03 15.4852 13.75 15.2556 13.53C15.0252 13.31 14.74 13.2 14.4 13.2C14.06 13.2 13.7752 13.3148 13.5456 13.5444C13.3152 13.7748 13.2 14.06 13.2 14.4H10.8V9.6H13.2V9.63C13.2 9.97 13.3152 10.25 13.5456 10.47C13.7752 10.69 14.06 10.8 14.4 10.8C14.74 10.8 15.0252 10.6848 15.2556 10.4544C15.4852 10.2248 15.6 9.94 15.6 9.6V8.4C15.6 8.06 15.4852 7.7748 15.2556 7.5444C15.0252 7.3148 14.74 7.2 14.4 7.2H9.6C9.26 7.2 8.9752 7.3148 8.7456 7.5444C8.5152 7.7748 8.4 8.06 8.4 8.4V15.6C8.4 15.94 8.5152 16.2248 8.7456 16.4544C8.9752 16.6848 9.26 16.8 9.6 16.8ZM12 24C10.34 24 8.78 23.6848 7.32 23.0544C5.86 22.4248 4.59 21.57 3.51 20.49C2.43 19.41 1.5752 18.14 0.9456 16.68C0.3152 15.22 0 13.66 0 12C0 10.34 0.3152 8.78 0.9456 7.32C1.5752 5.86 2.43 4.59 3.51 3.51C4.59 2.43 5.86 1.5748 7.32 0.9444C8.78 0.3148 10.34 0 12 0C13.66 0 15.22 0.3148 16.68 0.9444C18.14 1.5748 19.41 2.43 20.49 3.51C21.57 4.59 22.4248 5.86 23.0544 7.32C23.6848 8.78 24 10.34 24 12C24 13.66 23.6848 15.22 23.0544 16.68C22.4248 18.14 21.57 19.41 20.49 20.49C19.41 21.57 18.14 22.4248 16.68 23.0544C15.22 23.6848 13.66 24 12 24Z" fill="white"/>
</svg>
