<svg width="23" height="22" viewBox="0 0 23 22" fill="none" xmlns="http://www.w3.org/2000/svg">
<path d="M18.1702 2.0394L18.104 1.98657L18.0156 1.9443C16.1057 0.674768 13.8346 -0.00384791 11.5089 1.64124e-05C8.76558 -0.00200656 6.1119 0.934064 4.02681 2.63927C1.94173 4.34447 0.562601 6.70647 0.138368 9.29892C-0.285866 11.8914 0.272742 14.5435 1.71336 16.7766C3.15398 19.0097 5.38171 20.6766 7.99443 21.4765C10.6072 22.2763 13.4328 22.1565 15.9612 21.1386C18.4897 20.1206 20.5544 18.2716 21.7828 15.9254C23.0111 13.5791 23.3221 10.8901 22.6597 8.34372C21.9972 5.79736 20.4049 3.56139 18.1702 2.0394ZM11.5089 13.5255C10.9845 13.5255 10.4719 13.3767 10.0359 13.0981C9.59989 12.8194 9.26007 12.4233 9.0594 11.9599C8.85873 11.4965 8.80622 10.9866 8.90852 10.4947C9.01082 10.0027 9.26334 9.55087 9.63413 9.1962C10.0049 8.84153 10.4773 8.6 10.9916 8.50215C11.5059 8.4043 12.039 8.45452 12.5235 8.64646C13.0079 8.83841 13.422 9.16346 13.7133 9.5805C14.0047 9.99755 14.1602 10.4879 14.1602 10.9894C14.1573 11.6612 13.877 12.3046 13.3804 12.7796C12.8838 13.2546 12.2111 13.5227 11.5089 13.5255ZM21.2303 10.9894C21.2303 11.2536 21.2192 11.5072 21.1971 11.7608L15.9277 10.8732C15.898 9.83144 15.4649 8.83732 14.7125 8.08358L17.7836 3.88858C18.8639 4.76084 19.732 5.8482 20.3273 7.07469C20.9226 8.30118 21.2308 9.63721 21.2303 10.9894Z" fill="white"/>
</svg>
