<svg width="22" height="21" viewBox="0 0 22 21" fill="none" xmlns="http://www.w3.org/2000/svg">
<path d="M19.2095 0H22V2.34244H20.1589L14.0337 8.5382L12.4011 6.91021L19.2095 0ZM10.4211 7.02733C10.7221 7.02733 11 7.14445 11.2432 7.37869L13.5589 9.72114C13.7674 9.95538 13.8947 10.2248 13.8947 10.541L13.7789 11.0095L9.14737 20.3793C8.92737 20.7892 8.52211 21 8.10526 21C7.7 21 7.28316 20.7892 7.07474 20.3793L4.92105 16.0457L0.636842 13.9375C0.208421 13.7033 0 13.2934 0 12.8834C0 12.4735 0.208421 12.0636 0.636842 11.8293L9.9 7.14445C10.0621 7.02733 10.2358 7.02733 10.4211 7.02733ZM7.35263 10.3302L6.5421 11.1266L9.84211 14.4646L10.6295 13.6447L7.35263 10.3302ZM5.72 11.9816L4.89789 12.8132L8.17474 16.1277L8.99684 15.2962L5.72 11.9816Z" fill="white"/>
</svg>
