<svg width="21" height="21" viewBox="0 0 21 21" fill="none" xmlns="http://www.w3.org/2000/svg">
<path d="M8.18729 15.75C15.5822 16.875 15.5822 11.5 15.4502 11.5H5.54613C5.54613 11.5 1.84874 14.625 0.660351 15.625C1.18863 17.625 3.69756 19.625 5.15016 20.125C5.28224 20.125 7.92323 16.125 8.18737 15.75H8.18729ZM4.48981 2.50001C4.48981 1.12499 3.82954 0 2.24487 0C0.528281 0 0 1.12499 0 2.50001V11.625C0 12.875 0.26414 14.1249 0.528281 14.625L4.62188 11.2499C4.48981 11.2499 4.48981 3.49991 4.48981 2.49994V2.50001ZM20.9965 2.50001C20.9965 1.12499 20.3361 0 18.7515 0C17.0348 0 16.5066 1.12499 16.5066 2.50001C16.5066 3.25003 16.6387 8.87506 16.5066 12.375C16.5066 13.625 14.6579 16.875 10.4322 16.75C9.50783 16.75 8.97963 16.75 8.71549 16.625C8.45135 17 6.47062 20.25 6.33855 20.375C7.13089 20.625 8.84756 21 10.4322 21C17.563 21 21.1285 16.75 20.9965 11.125V2.50001ZM10.036 10.5V6.62508C10.036 5.25006 9.37576 4.12507 7.79116 4.12507C6.07441 4.12507 5.54621 5.25006 5.54621 6.62508V10.5H10.036V10.5ZM15.5822 10.5V6.62508C15.5822 5.25006 14.922 4.12507 13.3374 4.12507C11.6207 4.12507 11.0924 5.25006 11.0924 6.62508V10.5H15.5822V10.5Z" fill="white" fill-opacity="0.85"/>
</svg>
