<svg width="20" height="20" viewBox="0 0 20 20" fill="none" xmlns="http://www.w3.org/2000/svg">
<path d="M14.0007 19.1202C17.5279 17.5525 20 14.1455 20 9.99978C20 5.85406 17.5279 2.44709 14.0007 0.879395V2.90615C16.3879 4.31069 17.9999 7.00728 17.9999 9.99978C17.9999 12.9923 16.3879 15.6889 14.0007 17.0934V19.1202Z" fill="white"/>
<path d="M14.0007 4.93312V15.0669C15.2258 13.9522 16.0008 11.7947 16.0008 10C16.0008 8.20531 15.2258 6.04783 14.0007 4.93312ZM2.0001 15.0669H4.69725L12.0006 20V0L4.69725 4.93312H2.0001C0.897047 4.93312 0 5.84212 0 6.95987V13.0401C0 14.1579 0.897047 15.0669 2.0001 15.0669Z" fill="white"/>
</svg>
