<svg width="26" height="23" viewBox="0 0 26 23" fill="none" xmlns="http://www.w3.org/2000/svg">
<path d="M16.0044 0.884746C16.0044 0.728239 15.9627 0.574526 15.8835 0.439293C15.8043 0.304061 15.6905 0.192152 15.5536 0.114988C15.4168 0.0378234 15.2618 -0.00183323 15.1045 6.50874e-05C14.9472 0.0019634 14.7932 0.0453487 14.6582 0.125793L5.97852 5.30401H2.6674C1.19322 5.30401 0 6.48932 0 7.95769V15.0377C0 16.5043 1.19144 17.6914 2.6674 17.6914H5.97852L14.6565 22.8731C14.7914 22.954 14.9456 22.9978 15.1032 22.9999C15.2607 23.002 15.416 22.9625 15.5532 22.8853C15.6903 22.808 15.8044 22.6959 15.8837 22.5605C15.9629 22.425 16.0046 22.271 16.0044 22.1142V0.884746ZM23.4855 11.4924L26 13.9922L24.7428 15.2429L22.2283 12.7432L19.7138 15.2429L18.4566 13.9922L20.9711 11.4924L18.4566 8.99263L19.7138 7.74186L22.2283 10.2416L24.7445 7.74186L26 8.99263L23.4855 11.4924Z" fill="white"/>
</svg>
