<svg width="24" height="23" viewBox="0 0 24 23" fill="none" xmlns="http://www.w3.org/2000/svg">
<path d="M16.3154 21.9885C20.4257 20.1856 23.3066 16.2676 23.3066 11.5C23.3066 6.73243 20.4257 2.81441 16.3154 1.01157V3.34233C19.0972 4.95755 20.9758 8.05864 20.9758 11.5C20.9758 14.9414 19.0972 18.0425 16.3154 19.6577V21.9885Z" fill="white"/>
<path d="M16.3154 5.67308V17.3269C17.743 16.045 18.6461 13.5639 18.6461 11.5C18.6461 9.43611 17.743 6.95501 16.3154 5.67308ZM2.33077 17.3269H5.4738L13.9846 23V0L5.4738 5.67308H2.33077C1.04535 5.67308 0 6.71843 0 8.00385V14.9961C0 16.2816 1.04535 17.3269 2.33077 17.3269Z" fill="white"/>
</svg>
