<svg width="19" height="18" viewBox="0 0 19 18" fill="none" xmlns="http://www.w3.org/2000/svg">
<path d="M11.4698 9.19563C11.4698 8.22166 10.6297 7.42914 9.59725 7.42914C8.56489 7.42914 7.72489 8.22168 7.72489 9.19563C7.72489 10.1698 8.56489 10.9622 9.59725 10.9622C10.6297 10.9622 11.4698 10.1698 11.4698 9.19563ZM14.2516 0H4.74838C2.13012 0 0 2.00982 0 4.48015V5.72844H6.98724C7.72453 5.23292 8.62498 4.94019 9.59725 4.94019C10.5695 4.94019 11.4701 5.23292 12.2074 5.72844H19V4.48015C19 2.0098 16.8699 0 14.2516 0ZM16.1747 4.26097C16.1747 4.53474 15.9373 4.75877 15.6471 4.75877H14.0169C13.7267 4.75877 13.4893 4.53474 13.4893 4.26097V2.72278C13.4893 2.44903 13.7266 2.22498 14.0169 2.22498H15.6471C15.9373 2.22498 16.1747 2.44899 16.1747 2.72278V4.26097V4.26097ZM14.1077 9.19563C14.1077 11.5423 12.0842 13.4512 9.59723 13.4512C7.11017 13.4512 5.08687 11.5423 5.08687 9.19563C5.08687 8.54958 5.2411 7.9369 5.51537 7.38772H0V13.5199C0 15.9904 2.13012 18 4.74838 18H14.2516C16.8699 18 19 15.9903 19 13.5199V7.38772H13.6792C13.9535 7.9369 14.1077 8.54958 14.1077 9.19563Z" fill="white"/>
</svg>
