<svg width="34" height="28" viewBox="0 0 34 28" fill="none" xmlns="http://www.w3.org/2000/svg">
<path d="M0.944444 28C0.692593 28 0.472222 27.9125 0.283334 27.7375C0.0944446 27.5625 0 27.3583 0 27.125C0 26.8917 0.0944446 26.6875 0.283334 26.5125C0.472222 26.3375 0.692593 26.25 0.944444 26.25H3.77778V25.375H2.83333C2.58148 25.375 2.36111 25.2875 2.17222 25.1125C1.98333 24.9375 1.88889 24.7333 1.88889 24.5C1.88889 24.2667 1.98333 24.0625 2.17222 23.8875C2.36111 23.7125 2.58148 23.625 2.83333 23.625H3.77778V22.75H0.944444C0.692593 22.75 0.472222 22.6625 0.283334 22.4875C0.0944446 22.3125 0 22.1083 0 21.875C0 21.6417 0.0944446 21.4375 0.283334 21.2625C0.472222 21.0875 0.692593 21 0.944444 21H4.72222C4.97407 21 5.19444 21.0875 5.38333 21.2625C5.57222 21.4375 5.66667 21.6417 5.66667 21.875V27.125C5.66667 27.3583 5.57222 27.5625 5.38333 27.7375C5.19444 27.9125 4.97407 28 4.72222 28H0.944444ZM2.83333 7C2.58148 7 2.36111 6.9125 2.17222 6.7375C1.98333 6.5625 1.88889 6.35833 1.88889 6.125V1.75H0.944444C0.692593 1.75 0.472222 1.6625 0.283334 1.4875C0.0944446 1.3125 0 1.10833 0 0.875C0 0.641667 0.0944446 0.4375 0.283334 0.2625C0.472222 0.0875002 0.692593 0 0.944444 0H2.83333C3.08519 0 3.30556 0.0875002 3.49444 0.2625C3.68333 0.4375 3.77778 0.641667 3.77778 0.875V6.125C3.77778 6.35833 3.68333 6.5625 3.49444 6.7375C3.30556 6.9125 3.08519 7 2.83333 7ZM0.944444 17.5C0.692593 17.5 0.472222 17.4125 0.283334 17.2375C0.0944446 17.0625 0 16.8583 0 16.625V16.2312C0 16.1146 0.0787037 15.925 0.236111 15.6625L3.4 12.25H0.944444C0.692593 12.25 0.472222 12.1625 0.283334 11.9875C0.0944446 11.8125 0 11.6083 0 11.375C0 11.1417 0.0944446 10.9375 0.283334 10.7625C0.472222 10.5875 0.692593 10.5 0.944444 10.5H4.72222C4.97407 10.5 5.19444 10.5875 5.38333 10.7625C5.57222 10.9375 5.66667 11.1417 5.66667 11.375V11.7688C5.66667 11.8854 5.58796 12.075 5.43056 12.3375L2.26667 15.75H4.72222C4.97407 15.75 5.19444 15.8375 5.38333 16.0125C5.57222 16.1875 5.66667 16.3917 5.66667 16.625C5.66667 16.8583 5.57222 17.0625 5.38333 17.2375C5.19444 17.4125 4.97407 17.5 4.72222 17.5H0.944444ZM11.3333 26.25C10.7981 26.25 10.3499 26.082 9.98844 25.746C9.62578 25.4112 9.44444 24.9958 9.44444 24.5C9.44444 24.0042 9.62578 23.5888 9.98844 23.254C10.3499 22.918 10.7981 22.75 11.3333 22.75H32.1111C32.6463 22.75 33.0946 22.918 33.456 23.254C33.8187 23.5888 34 24.0042 34 24.5C34 24.9958 33.8187 25.4112 33.456 25.746C33.0946 26.082 32.6463 26.25 32.1111 26.25H11.3333ZM11.3333 15.75C10.7981 15.75 10.3499 15.582 9.98844 15.246C9.62578 14.9112 9.44444 14.4958 9.44444 14C9.44444 13.5042 9.62578 13.0882 9.98844 12.7522C10.3499 12.4174 10.7981 12.25 11.3333 12.25H32.1111C32.6463 12.25 33.0946 12.4174 33.456 12.7522C33.8187 13.0882 34 13.5042 34 14C34 14.4958 33.8187 14.9112 33.456 15.246C33.0946 15.582 32.6463 15.75 32.1111 15.75H11.3333ZM11.3333 5.25C10.7981 5.25 10.3499 5.08258 9.98844 4.74775C9.62578 4.41175 9.44444 3.99583 9.44444 3.5C9.44444 3.00417 9.62578 2.58825 9.98844 2.25225C10.3499 1.91742 10.7981 1.75 11.3333 1.75H32.1111C32.6463 1.75 33.0946 1.91742 33.456 2.25225C33.8187 2.58825 34 3.00417 34 3.5C34 3.99583 33.8187 4.41175 33.456 4.74775C33.0946 5.08258 32.6463 5.25 32.1111 5.25H11.3333Z" fill="white"/>
</svg>
