<svg width="21" height="25" viewBox="0 0 21 25" fill="none" xmlns="http://www.w3.org/2000/svg">
<path d="M15 25C14.175 25 13.469 24.6506 12.882 23.9518C12.294 23.2518 12 22.4107 12 21.4286V3.57143C12 2.58929 12.294 1.74881 12.882 1.05C13.469 0.35 14.175 0 15 0H18C18.825 0 19.5315 0.35 20.1195 1.05C20.7065 1.74881 21 2.58929 21 3.57143V21.4286C21 22.4107 20.7065 23.2518 20.1195 23.9518C19.5315 24.6506 18.825 25 18 25H15ZM3 25C2.175 25 1.469 24.6506 0.882 23.9518C0.294 23.2518 0 22.4107 0 21.4286V3.57143C0 2.58929 0.294 1.74881 0.882 1.05C1.469 0.35 2.175 0 3 0H6C6.825 0 7.5315 0.35 8.1195 1.05C8.7065 1.74881 9 2.58929 9 3.57143V21.4286C9 22.4107 8.7065 23.2518 8.1195 23.9518C7.5315 24.6506 6.825 25 6 25H3Z" fill="white"/>
</svg>
