<svg width="16" height="23" viewBox="0 0 16 23" fill="none" xmlns="http://www.w3.org/2000/svg">
<path d="M8 16.1C10.5211 16.1 12.5714 14.0357 12.5714 11.5V4.6C12.5714 2.0631 10.5211 0 8 0C5.47886 0 3.42857 2.0631 3.42857 4.6V11.5C3.42857 14.0357 5.47886 16.1 8 16.1ZM16 11.5V9.2C16 8.895 15.8796 8.60249 15.6653 8.38683C15.4509 8.17116 15.1602 8.05 14.8571 8.05C14.554 8.05 14.2633 8.17116 14.049 8.38683C13.8347 8.60249 13.7143 8.895 13.7143 9.2V11.5C13.7143 14.6705 11.1509 17.25 8 17.25C4.84914 17.25 2.28571 14.6705 2.28571 11.5V9.2C2.28571 8.895 2.16531 8.60249 1.95098 8.38683C1.73665 8.17116 1.44596 8.05 1.14286 8.05C0.839753 8.05 0.549063 8.17116 0.334735 8.38683C0.120408 8.60249 0 8.895 0 9.2V11.5C0 15.548 2.98629 18.8968 6.85714 19.458V20.7H3.42857C3.12547 20.7 2.83478 20.8212 2.62045 21.0368C2.40612 21.2525 2.28571 21.545 2.28571 21.85C2.28571 22.155 2.40612 22.4475 2.62045 22.6632C2.83478 22.8788 3.12547 23 3.42857 23H12.5714C12.8745 23 13.1652 22.8788 13.3796 22.6632C13.5939 22.4475 13.7143 22.155 13.7143 21.85C13.7143 21.545 13.5939 21.2525 13.3796 21.0368C13.1652 20.8212 12.8745 20.7 12.5714 20.7H9.14286V19.458C13.0137 18.8968 16 15.548 16 11.5Z" fill="white"/>
</svg>
