<svg width="50" height="50" viewBox="0 0 50 50" fill="none" xmlns="http://www.w3.org/2000/svg">
<path d="M20 35C20.7083 35 21.3025 34.76 21.7825 34.28C22.2608 33.8017 22.5 33.2083 22.5 32.5V17.4375C22.5 16.7292 22.2608 16.1458 21.7825 15.6875C21.3025 15.2292 20.7083 15 20 15C19.2917 15 18.6983 15.2392 18.22 15.7175C17.74 16.1975 17.5 16.7917 17.5 17.5V32.5625C17.5 33.2708 17.74 33.8542 18.22 34.3125C18.6983 34.7708 19.2917 35 20 35ZM30 35C30.7083 35 31.3025 34.76 31.7825 34.28C32.2608 33.8017 32.5 33.2083 32.5 32.5V17.4375C32.5 16.7292 32.2608 16.1458 31.7825 15.6875C31.3025 15.2292 30.7083 15 30 15C29.2917 15 28.6983 15.2392 28.22 15.7175C27.74 16.1975 27.5 16.7917 27.5 17.5V32.5625C27.5 33.2708 27.74 33.8542 28.22 34.3125C28.6983 34.7708 29.2917 35 30 35ZM25 50C21.5417 50 18.2917 49.3433 15.25 48.03C12.2083 46.7183 9.5625 44.9375 7.3125 42.6875C5.0625 40.4375 3.28167 37.7917 1.97 34.75C0.656667 31.7083 0 28.4583 0 25C0 21.5417 0.656667 18.2917 1.97 15.25C3.28167 12.2083 5.0625 9.5625 7.3125 7.3125C9.5625 5.0625 12.2083 3.28083 15.25 1.9675C18.2917 0.655833 21.5417 0 25 0C28.4583 0 31.7083 0.655833 34.75 1.9675C37.7917 3.28083 40.4375 5.0625 42.6875 7.3125C44.9375 9.5625 46.7183 12.2083 48.03 15.25C49.3433 18.2917 50 21.5417 50 25C50 28.4583 49.3433 31.7083 48.03 34.75C46.7183 37.7917 44.9375 40.4375 42.6875 42.6875C40.4375 44.9375 37.7917 46.7183 34.75 48.03C31.7083 49.3433 28.4583 50 25 50Z" fill="white"/>
</svg>
