<svg width="58" height="58" viewBox="0 0 58 58" fill="none" xmlns="http://www.w3.org/2000/svg">
    <g filter="url(#filter0_d_197_702)">
        <path d="M22.75 40.25L40.25 29L22.75 17.75V40.25ZM29 54C25.5417 54 22.2917 53.3433 19.25 52.03C16.2083 50.7183 13.5625 48.9375 11.3125 46.6875C9.0625 44.4375 7.28167 41.7917 5.97 38.75C4.65667 35.7083 4 32.4583 4 29C4 25.5417 4.65667 22.2917 5.97 19.25C7.28167 16.2083 9.0625 13.5625 11.3125 11.3125C13.5625 9.0625 16.2083 7.28083 19.25 5.9675C22.2917 4.65583 25.5417 4 29 4C32.4583 4 35.7083 4.65583 38.75 5.9675C41.7917 7.28083 44.4375 9.0625 46.6875 11.3125C48.9375 13.5625 50.7183 16.2083 52.03 19.25C53.3433 22.2917 54 25.5417 54 29C54 32.4583 53.3433 35.7083 52.03 38.75C50.7183 41.7917 48.9375 44.4375 46.6875 46.6875C44.4375 48.9375 41.7917 50.7183 38.75 52.03C35.7083 53.3433 32.4583 54 29 54Z" fill="white"/>
    </g>
    <defs>
        <filter id="filter0_d_197_702" x="0" y="0" width="58" height="58" filterUnits="userSpaceOnUse" color-interpolation-filters="sRGB">
            <feFlood flood-opacity="0" result="BackgroundImageFix"/>
            <feColorMatrix in="SourceAlpha" type="matrix" values="0 0 0 0 0 0 0 0 0 0 0 0 0 0 0 0 0 0 127 0" result="hardAlpha"/>
            <feOffset/>
            <feGaussianBlur stdDeviation="2"/>
            <feComposite in2="hardAlpha" operator="out"/>
            <feColorMatrix type="matrix" values="0 0 0 0 0 0 0 0 0 0 0 0 0 0 0 0 0 0 1 0"/>
            <feBlend mode="normal" in2="BackgroundImageFix" result="effect1_dropShadow_197_702"/>
            <feBlend mode="normal" in="SourceGraphic" in2="effect1_dropShadow_197_702" result="shape"/>
        </filter>
    </defs>
</svg>
