<svg width="52" height="52" viewBox="0 0 52 52" fill="none" xmlns="http://www.w3.org/2000/svg">
<path d="M19.5 19.045V32.955C19.5 33.9517 19.955 34.71 20.865 35.23C21.775 35.75 22.6633 35.7067 23.53 35.1L34.32 28.21C35.1433 27.69 35.555 26.9533 35.555 26C35.555 25.0467 35.1433 24.31 34.32 23.79L23.53 16.9C22.6633 16.2933 21.775 16.25 20.865 16.77C19.955 17.29 19.5 18.0483 19.5 19.045ZM26 52C22.4033 52 19.0233 51.3171 15.86 49.9512C12.6967 48.5871 9.945 46.735 7.605 44.395C5.265 42.055 3.41293 39.3033 2.0488 36.14C0.682934 32.9767 0 29.5967 0 26C0 22.4033 0.682934 19.0233 2.0488 15.86C3.41293 12.6967 5.265 9.945 7.605 7.605C9.945 5.265 12.6967 3.41207 15.86 2.0462C19.0233 0.682066 22.4033 0 26 0C29.5967 0 32.9767 0.682066 36.14 2.0462C39.3033 3.41207 42.055 5.265 44.395 7.605C46.735 9.945 48.5871 12.6967 49.9512 15.86C51.3171 19.0233 52 22.4033 52 26C52 29.5967 51.3171 32.9767 49.9512 36.14C48.5871 39.3033 46.735 42.055 44.395 44.395C42.055 46.735 39.3033 48.5871 36.14 49.9512C32.9767 51.3171 29.5967 52 26 52Z" fill="white"/>
</svg>
