<svg width="51" height="51" viewBox="0 0 51 51" fill="none" xmlns="http://www.w3.org/2000/svg">
<path d="M25.5 0C11.424 0 0 11.424 0 25.5C0 39.576 11.424 51 25.5 51C39.576 51 51 39.576 51 25.5C51 11.424 39.576 0 25.5 0ZM20.4 35.7C18.9975 35.7 17.85 34.5525 17.85 33.15V17.85C17.85 16.4475 18.9975 15.3 20.4 15.3C21.8025 15.3 22.95 16.4475 22.95 17.85V33.15C22.95 34.5525 21.8025 35.7 20.4 35.7ZM30.6 35.7C29.1975 35.7 28.05 34.5525 28.05 33.15V17.85C28.05 16.4475 29.1975 15.3 30.6 15.3C32.0025 15.3 33.15 16.4475 33.15 17.85V33.15C33.15 34.5525 32.0025 35.7 30.6 35.7Z" fill="white"/>
</svg>
