<svg width="16" height="18" viewBox="0 0 16 18" fill="none" xmlns="http://www.w3.org/2000/svg">
<path d="M8.40321 0.0149998C9.40844 0 10.406 0.00749991 11.4036 0C11.4649 1.14749 11.887 2.31747 12.7464 3.12746C13.6059 3.95995 14.8183 4.34245 16 4.46994V7.49241C14.895 7.45491 13.7824 7.22991 12.7771 6.76492C12.3397 6.56992 11.933 6.32242 11.534 6.06742C11.5263 8.2574 11.5417 10.4474 11.5187 12.6298C11.4573 13.6798 11.1043 14.7223 10.4827 15.5848C9.4775 17.0248 7.73561 17.9623 5.94768 17.9923C4.85036 18.0523 3.75305 17.7598 2.81688 17.2198C1.26682 16.3273 0.177183 14.6923 0.016039 12.9373C0.000691917 12.5623 -0.0069816 12.1873 0.00836545 11.8199C0.146489 10.3949 0.867801 9.02989 1.98814 8.0999C3.26194 7.01991 5.0422 6.50242 6.70736 6.80991C6.7227 7.9199 6.67666 9.02989 6.67666 10.1399C5.91698 9.89988 5.02685 9.96738 4.35926 10.4174C3.87582 10.7249 3.50749 11.1974 3.31566 11.7299C3.15451 12.1123 3.20055 12.5323 3.20823 12.9373C3.39239 14.1673 4.60481 15.2023 5.89396 15.0898C6.7534 15.0823 7.57446 14.5948 8.01953 13.8823C8.16533 13.6348 8.32647 13.3798 8.33414 13.0873C8.41088 11.7449 8.38019 10.4099 8.38786 9.06739C8.39553 6.04492 8.38019 3.02996 8.40321 0.0149998Z" fill="white"/>
</svg>
